<?xml version="1.0" encoding="UTF-8" standalone="no"?>
<!DOCTYPE svg PUBLIC "-//W3C//DTD SVG 1.1//EN" "http://www.w3.org/Graphics/SVG/1.1/DTD/svg11.dtd">
<svg width="100%" height="100%" viewBox="0 0 32 32" version="1.1" xmlns="http://www.w3.org/2000/svg" xmlns:xlink="http://www.w3.org/1999/xlink" xml:space="preserve" xmlns:serif="http://www.serif.com/" style="fill-rule:evenodd;clip-rule:evenodd;stroke-linejoin:round;stroke-miterlimit:2;">
    <g transform="matrix(1.53402,-2.69464e-18,-1.90366e-18,1.09927,-3.06806,-0.732028)">
        <path d="M21.615,17.347C21.751,17.347 21.873,17.461 21.924,17.637C21.976,17.812 21.946,18.013 21.849,18.146C21.513,18.608 21.122,19.146 20.944,19.391C20.881,19.477 20.797,19.525 20.709,19.525C19.193,19.525 5.582,19.525 4.055,19.525C3.965,19.525 3.88,19.475 3.817,19.387C3.641,19.14 3.259,18.603 2.931,18.142C2.836,18.009 2.808,17.808 2.86,17.634C2.912,17.46 3.033,17.347 3.169,17.347C6.392,17.347 18.368,17.347 21.615,17.347Z" style="fill:rgb(97,227,225);"/>
    </g>
    <g transform="matrix(1.08373,-1.90366e-18,-1.90366e-18,1.09927,-3.59498,-1.90945)">
        <path d="M22.186,23.496L22.186,24.654C22.186,24.973 21.923,25.233 21.599,25.233L14.453,25.233C14.129,25.233 13.865,24.973 13.865,24.654L13.865,23.496C13.865,23.176 14.129,22.917 14.453,22.917L21.599,22.917C21.923,22.917 22.186,23.176 22.186,23.496Z" style="fill:rgb(97,227,225);"/>
    </g>
    <g transform="matrix(-1.53402,-1.87864e-16,1.34622e-16,-1.09927,33.4705,36.7333)">
        <path d="M21.141,17.347C21.342,17.347 21.523,17.521 21.594,17.785C21.664,18.048 21.611,18.345 21.459,18.53C19.421,21.008 14.824,26.601 13.973,27.636C13.885,27.743 13.773,27.802 13.656,27.802C12.892,27.802 9.935,27.802 9.17,27.802C9.053,27.802 8.94,27.742 8.852,27.635C8.003,26.598 3.425,21.006 1.397,18.529C1.245,18.344 1.192,18.047 1.263,17.784C1.333,17.521 1.514,17.347 1.715,17.347C5.609,17.347 17.242,17.347 21.141,17.347Z" style="fill:rgb(255,6,123);"/>
    </g>
</svg>
